<svg xmlns="http://www.w3.org/2000/svg" viewBox="0 0 760 190" role="img" aria-label="Lash Designer">
<g transform="translate(10 12)"><g fill="none" stroke="#75103f" stroke-linecap="round" stroke-linejoin="round"><path stroke-width="8" d="M18 38v82m0-72h80v55"/><path stroke-width="8" d="M38 20v30m42-30v30"/><path stroke-width="6" d="M38 72h.1m22 0h.1m22 0h.1M38 92h.1m22 0h.1"/><path stroke-width="8" d="M12 150c38-49 84-42 128-92-14 46-48 77-104 89"/><path stroke-width="5" d="M48 140c40-3 69-22 93-54M63 146c33-7 58-24 77-43"/></g><path fill="#75103f" d="M141 34l5 13 13 5-13 5-5 13-5-13-13-5 13-5z"/></g><text x="185" y="125" fill="#75103f" font-size="86" font-family="Georgia, 'Times New Roman', serif" letter-spacing="-2">Lash Designer</text></svg>